<?xml version="1.0" standalone="no"?>
<!DOCTYPE svg PUBLIC "-//W3C//DTD SVG 20010904//EN"
 "http://www.w3.org/TR/2001/REC-SVG-20010904/DTD/svg10.dtd">
<svg version="1.0" xmlns="http://www.w3.org/2000/svg"
 width="1600.000000pt" height="900.000000pt" viewBox="0 0 1600.000000 900.000000"
 preserveAspectRatio="xMidYMid meet">

<g transform="translate(0.000000,900.000000) scale(0.100000,-0.100000)"
fill="#000000" stroke="none">
<path d="M0 4500 l0 -4500 8000 0 8000 0 0 1204 0 1204 -114 4 c-109 3 -144
11 -119 26 6 4 -46 8 -115 8 -70 1 -185 4 -257 7 -71 3 -224 8 -340 11 -172 4
-211 8 -213 20 -3 12 -39 15 -202 18 -142 2 -203 7 -212 16 -8 8 -51 12 -140
12 -109 0 -130 3 -145 18 -15 15 -38 18 -148 20 -71 1 -230 5 -352 8 -208 6
-223 8 -223 25 0 28 -36 32 -216 26 -90 -3 -166 -1 -169 3 -3 5 -14 6 -25 3
-13 -3 -20 0 -20 8 0 18 -17 -1 -23 -26 -3 -11 -5 -3 -6 18 -1 25 -5 36 -12
31 -6 -3 -9 -20 -6 -38 68 -408 59 -770 -20 -858 -9 -10 -19 -18 -22 -18 -3 0
-7 73 -7 163 -1 89 -6 189 -12 222 -40 218 -52 274 -66 310 -10 27 -15 33 -16
19 0 -26 -13 -37 -65 -55 -22 -8 -46 -20 -53 -26 -7 -7 -23 -13 -35 -13 -18 0
-19 -2 -7 -10 12 -8 11 -10 -7 -10 -12 0 -24 -6 -26 -12 -3 -7 -6 -3 -6 9 -1
12 -6 25 -11 28 -6 3 -19 25 -30 49 -59 131 -172 302 -267 406 -67 73 -93 116
-93 155 0 15 9 72 20 127 21 101 22 153 3 88 -6 -19 -21 -79 -33 -133 -26
-110 -47 -140 -112 -158 -25 -6 -151 -9 -341 -7 -282 3 -304 4 -337 23 -37 22
-51 56 -95 228 -26 101 -30 73 -6 -44 12 -56 21 -113 21 -126 0 -37 -25 -78
-106 -172 -101 -116 -182 -252 -294 -493 -12 -27 -26 -48 -31 -48 -5 0 -9 -7
-9 -16 0 -9 -9 -18 -20 -21 -22 -6 -26 -18 -10 -28 6 -3 9 -14 9 -23 -1 -15
-2 -15 -6 1 -7 28 -21 19 -16 -10 4 -22 2 -25 -6 -13 -9 13 -11 13 -11 -2 0
-12 -8 -18 -25 -18 -14 0 -25 -4 -25 -8 0 -5 -36 -46 -81 -92 -48 -50 -83 -95
-86 -112 -8 -38 -18 -35 -31 10 -24 78 -30 170 -22 318 11 191 38 356 95 583
8 36 13 71 10 78 -2 8 -1 12 4 8 7 -4 29 40 36 75 1 3 13 31 28 62 26 55 38
101 18 69 -7 -11 -9 -11 -14 0 -3 8 -6 2 -6 -13 -1 -20 -6 -27 -18 -26 -37 3
-63 -2 -63 -13 0 -5 5 -7 10 -4 6 3 10 -1 10 -9 0 -33 -39 -16 -64 26 -25 43
-25 43 -81 42 -38 -1 -55 2 -52 10 2 6 -4 19 -14 28 -14 13 -18 14 -23 3 -3
-10 -32 -14 -100 -17 -92 -3 -96 -2 -96 18 0 29 -19 43 -55 38 -16 -2 -46 2
-65 8 -34 11 -34 12 -10 19 25 7 25 7 2 8 -13 1 -21 5 -18 10 10 16 -71 34
-125 28 -45 -6 -52 -4 -56 13 -7 25 -21 26 -19 3 1 -13 -5 -17 -19 -15 -11 2
-26 4 -32 4 -9 1 -13 21 -14 57 -2 55 -2 55 -10 -19 -4 -41 -6 -77 -4 -80 2
-3 8 -147 15 -320 6 -173 20 -448 31 -610 l20 -295 -23 -18 c-13 -9 -40 -31
-61 -48 -29 -23 -59 -35 -129 -49 -111 -23 -124 -18 -133 47 -7 51 9 648 25
973 5 107 12 249 15 315 10 203 34 622 45 770 6 77 15 210 21 295 5 85 16 256
24 380 8 124 17 248 21 275 6 48 22 254 29 380 2 33 13 179 25 325 11 146 23
297 25 335 5 75 36 403 61 650 8 83 17 216 21 296 7 169 0 192 -65 204 -22 4
-46 17 -59 33 l-21 27 -6 -37 c-3 -21 -8 -53 -11 -72 l-6 -34 -262 -3 c-144
-1 -289 -1 -322 -1 -33 1 -90 2 -127 2 -37 1 -70 5 -73 10 -3 5 -8 30 -11 57
-4 26 -14 54 -23 61 -13 11 -14 14 -2 21 9 6 12 19 8 37 l-6 29 112 -3 c62 -2
253 -1 425 3 l312 7 0 23 c0 13 -7 26 -16 29 -9 3 -115 6 -236 6 -122 0 -219
2 -217 4 2 2 47 7 99 11 52 3 127 10 165 14 69 8 69 8 18 9 l-53 2 0 45 0 44
58 3 c53 3 57 5 60 29 2 21 9 27 28 27 16 0 24 -6 24 -19 0 -9 7 -24 15 -33 8
-8 15 -22 15 -30 0 -25 19 -18 26 9 3 14 10 25 14 25 4 0 5 11 2 25 l-4 25 85
0 c59 0 87 -4 90 -12 3 -7 6 -1 6 13 1 42 21 88 40 94 31 10 51 -5 52 -39 1
-21 3 -24 6 -11 7 30 23 43 23 18 0 -28 18 -33 57 -16 18 7 41 13 52 13 24 0
35 28 19 47 -10 12 -4 14 33 12 50 -3 73 6 66 26 -4 9 11 14 51 18 37 4 59 12
65 22 6 12 16 15 33 11 13 -4 24 -2 24 3 0 5 8 7 18 4 10 -2 29 7 45 21 32 30
45 32 54 10 7 -18 58 -11 84 12 8 8 32 14 51 14 20 0 49 7 64 15 20 11 45 14
79 10 28 -2 44 -2 38 1 -23 10 -14 24 16 24 16 0 31 4 33 9 9 27 138 8 138
-19 0 -6 5 -10 10 -10 6 0 10 11 10 23 0 35 33 44 143 39 67 -3 97 -1 97 7 0
7 21 11 56 11 53 0 55 1 70 35 14 35 15 35 75 35 51 0 59 2 57 18 -3 16 13 17
226 16 213 -1 231 1 248 18 13 13 25 17 36 12 9 -4 41 -10 70 -12 42 -3 64 1
100 20 26 12 52 30 59 38 9 12 43 15 190 14 98 0 261 0 363 0 173 1 507 -2
716 -7 75 -2 95 1 111 16 27 24 187 25 222 1 17 -13 43 -16 100 -15 42 1 108
-5 146 -14 39 -8 105 -15 147 -15 60 0 79 -4 86 -16 7 -12 27 -16 93 -16 46 0
104 -7 128 -15 30 -9 81 -13 149 -12 90 1 106 -1 114 -16 8 -13 22 -16 71 -15
34 1 108 2 165 1 95 -1 102 -2 102 -21 0 -11 5 -20 11 -20 6 0 9 9 6 20 -6 23
2 24 71 8 33 -7 49 -15 45 -24 -7 -19 20 -23 159 -26 91 -2 128 -6 128 -15 0
-8 27 -11 92 -11 69 1 94 -2 102 -14 9 -11 31 -13 109 -10 l97 4 0 564 0 564
-8000 0 -8000 0 0 -4500z m14237 3614 c-3 -3 -12 -4 -19 -1 -8 3 -5 6 6 6 11
1 17 -2 13 -5z m-3920 -390 c-3 -3 -12 -4 -19 -1 -8 3 -5 6 6 6 11 1 17 -2 13
-5z m-377 -25 c0 -4 -7 -6 -15 -3 -8 4 -22 1 -30 -6 -8 -7 -15 -9 -15 -5 0 4
8 13 17 20 18 13 43 10 43 -6z m40 -39 c0 -11 -4 -20 -10 -20 -5 0 -10 9 -10
20 0 11 5 20 10 20 6 0 10 -9 10 -20z m-40 -1 c0 -6 -7 -9 -15 -5 -8 3 -19 -2
-24 -12 -5 -9 -13 -14 -17 -10 -10 11 16 38 37 38 11 0 19 -5 19 -11z m-3888
-43 c8 -7 20 -40 27 -72 23 -110 62 -213 111 -294 50 -82 50 -86 1 -92 -35 -4
-60 -45 -64 -103 -4 -58 5 -195 28 -415 15 -148 59 -648 70 -795 3 -38 8 -104
11 -145 11 -142 15 -195 20 -295 3 -55 8 -107 11 -115 4 -8 8 -46 9 -85 8
-238 26 -493 34 -507 6 -10 10 -55 10 -100 0 -46 9 -198 20 -338 11 -140 24
-345 30 -455 5 -110 12 -240 15 -290 24 -441 33 -646 45 -1060 6 -187 12 -378
15 -425 3 -71 1 -89 -14 -109 -18 -24 -19 -24 -97 -11 -126 20 -150 33 -173
94 -42 113 -46 160 -32 403 24 452 31 583 41 873 11 301 14 1518 5 1825 -16
548 -46 1185 -70 1480 -7 99 -17 236 -20 305 -11 231 -32 503 -46 590 -6 36
-15 77 -21 92 -17 46 4 74 34 44z m1314 -10 c3 -8 -6 -99 -21 -203 -15 -103
-27 -199 -27 -213 0 -14 -6 -124 -14 -245 -26 -430 -36 -1053 -18 -1197 8 -63
19 -61 22 4 1 28 7 57 12 64 7 7 9 47 7 99 -4 81 -3 86 14 82 11 -3 19 0 19 6
1 14 75 67 94 67 19 0 30 17 51 78 11 28 25 52 32 52 7 0 13 8 13 18 0 10 4
22 9 27 5 6 11 28 13 50 3 38 4 40 48 47 46 8 74 32 66 55 -6 14 16 20 73 21
39 2 62 17 54 38 -4 11 5 14 40 14 48 0 82 22 73 46 -3 8 1 14 9 14 9 0 15 9
15 23 0 23 41 54 64 48 5 -1 15 8 23 19 8 12 21 19 29 16 8 -3 23 7 36 25 18
24 28 29 49 25 29 -6 74 21 52 30 -7 3 -13 10 -13 16 0 11 25 38 37 38 4 0 19
14 32 30 13 17 33 30 45 30 23 0 61 20 38 20 -7 0 -10 5 -7 10 4 6 19 9 33 8
18 -2 26 1 24 10 -2 11 10 13 50 12 72 -3 78 -2 78 14 0 8 11 27 25 42 19 20
25 23 25 10 0 -9 4 -16 9 -16 13 0 22 28 11 35 -15 9 -12 25 5 25 8 0 15 -9
15 -20 0 -11 5 -20 11 -20 5 0 7 5 4 11 -9 13 3 61 13 55 9 -5 4 58 -33 433
-8 79 -12 147 -9 152 15 25 56 -5 69 -51 26 -97 59 -190 66 -190 5 0 9 -7 9
-16 0 -17 41 -92 78 -142 30 -41 24 -59 -23 -68 -26 -5 -43 -16 -57 -38 -18
-28 -19 -44 -14 -166 2 -74 12 -205 21 -290 110 -1084 211 -2422 260 -3450 21
-434 44 -1206 37 -1233 -3 -12 -15 -32 -28 -43 -22 -21 -25 -21 -100 -7 -91
17 -118 30 -169 78 l-38 35 7 107 c28 473 37 659 46 938 10 335 12 579 3 558
-7 -20 -33 11 -33 40 0 23 -2 23 -74 22 l-75 -2 -3 31 c-3 29 -6 31 -55 36
-28 3 -60 13 -70 23 -13 11 -36 17 -64 17 -36 0 -46 4 -54 23 -8 18 -18 22
-58 23 -41 1 -53 6 -74 30 -17 19 -27 25 -30 16 -4 -10 -8 -10 -19 -1 -7 6
-20 9 -28 6 -9 -4 -21 4 -30 19 -9 13 -23 24 -31 24 -8 0 -15 9 -15 19 0 29
-18 36 -77 32 l-53 -3 0 32 0 33 -61 -6 -61 -5 5 27 c7 31 -4 53 -24 51 -8 -1
-21 -2 -29 -1 -13 1 -13 2 0 11 25 17 -16 40 -72 40 -34 0 -48 4 -46 13 1 6
-3 22 -10 33 -8 16 -18 20 -37 17 -22 -5 -25 -2 -25 25 0 17 -5 34 -10 37 -6
4 -8 15 -5 26 4 13 2 19 -9 19 -17 0 -18 -3 -18 -72 1 -26 -4 -50 -10 -54 -7
-4 -9 23 -7 84 2 50 1 94 -3 98 -5 4 -8 15 -8 25 0 24 -54 67 -58 46 -4 -21
26 -189 35 -196 5 -3 9 -57 9 -118 1 -62 6 -141 12 -175 41 -239 50 -513 45
-1368 -2 -366 -6 -670 -8 -676 -2 -7 -68 -13 -187 -18 -100 -3 -224 -9 -274
-13 -130 -8 -125 -18 -124 273 1 126 3 240 4 254 2 14 6 115 10 225 4 110 9
232 11 270 2 39 7 140 10 225 6 177 16 358 20 380 1 8 6 94 9 190 4 96 23 396
42 665 18 270 36 519 38 555 7 107 25 328 36 435 5 55 16 183 25 285 8 102 18
210 22 240 3 30 7 66 8 80 1 14 8 88 15 165 7 77 14 160 15 185 2 25 10 113
19 195 24 227 26 261 28 385 3 183 -1 262 -12 255 -5 -3 -6 -13 -3 -21 5 -12
1 -15 -13 -11 -10 3 -34 8 -51 12 -18 4 -35 10 -38 15 -3 5 10 31 28 57 60 83
113 207 136 313 15 72 53 114 67 76z m2514 4 c0 -5 -5 -10 -11 -10 -5 0 -7 5
-4 10 3 6 8 10 11 10 2 0 4 -4 4 -10z m-960 -260 c0 -5 -2 -10 -4 -10 -3 0 -8
5 -11 10 -3 6 -1 10 4 10 6 0 11 -4 11 -10z m-1994 -70 l172 0 4 -36 c2 -20 0
-59 -5 -87 -5 -29 -11 -61 -13 -72 -3 -20 -8 -20 -281 -12 -153 4 -329 6 -391
5 -93 -3 -113 0 -116 12 -10 35 -17 160 -11 181 l7 22 232 -6 c127 -4 308 -7
402 -7z m1441 -396 c-3 -3 -12 -4 -19 -1 -8 3 -5 6 6 6 11 1 17 -2 13 -5z
m-850 -2721 c-3 -10 -5 -4 -5 12 0 17 2 24 5 18 2 -7 2 -21 0 -30z m-2907
-842 c41 -5 76 -14 78 -20 4 -13 42 -15 42 -1 0 30 215 17 315 -21 79 -29 107
-57 158 -157 90 -177 140 -347 194 -662 13 -79 17 -159 17 -320 0 -249 -12
-315 -68 -361 -37 -31 -84 -49 -70 -28 12 20 14 39 3 39 -4 0 -8 28 -7 63 1
47 -5 75 -26 120 -14 32 -26 60 -26 63 0 3 -19 44 -41 90 -35 72 -71 115 -89
105 -2 -2 -27 49 -55 112 -101 224 -176 350 -287 477 -107 123 -111 136 -78
290 23 108 23 107 11 95 -5 -6 -21 -62 -37 -125 -30 -124 -55 -162 -116 -174
-17 -3 -160 -6 -318 -6 -158 0 -301 3 -318 6 -61 12 -86 50 -117 174 -45 186
-62 206 -25 29 11 -52 20 -107 20 -122 0 -37 -31 -95 -70 -132 -84 -78 -202
-253 -295 -439 -14 -27 -28 -40 -45 -43 -13 -2 -27 -8 -30 -13 -7 -11 -50 -2
-50 11 0 5 -6 9 -14 9 -8 0 -20 16 -27 35 -7 19 -19 35 -26 35 -7 0 -13 4 -13
9 0 5 -8 8 -17 7 -12 -1 -17 5 -16 19 1 11 -9 34 -23 52 -13 17 -24 39 -24 48
0 9 -4 14 -9 10 -5 -3 -12 -1 -16 5 -3 5 -1 10 4 10 6 0 11 5 11 11 0 5 -4 7
-10 4 -5 -3 -10 2 -11 12 -2 76 -77 -299 -93 -472 -2 -22 -2 16 0 85 7 235 75
555 161 765 38 93 111 208 147 233 81 55 310 90 378 58 33 -16 38 -16 61 -2
17 12 65 19 163 25 156 11 589 5 704 -8z m6057 -303 c-3 -8 -6 -5 -6 6 -1 11
2 17 5 13 3 -3 4 -12 1 -19z m428 -840 c-18 -46 -53 -144 -80 -218 -59 -166
-110 -280 -125 -280 -7 0 -10 6 -7 13 2 6 17 53 32 102 77 256 167 464 201
465 6 0 -2 -35 -21 -82z m-7580 -45 c-59 -199 -138 -408 -168 -445 l-18 -23 7
35 c12 62 93 295 130 377 51 111 73 136 49 56z"/>
<path d="M8555 6910 c-3 -5 -1 -10 4 -10 6 0 11 5 11 10 0 6 -2 10 -4 10 -3 0
-8 -4 -11 -10z"/>
<path d="M8641 6894 c0 -11 3 -14 6 -6 3 7 2 16 -1 19 -3 4 -6 -2 -5 -13z"/>
<path d="M8368 6843 c6 -2 18 -2 25 0 6 3 1 5 -13 5 -14 0 -19 -2 -12 -5z"/>
<path d="M7840 6420 c0 -18 2 -19 20 -8 11 7 20 16 20 20 0 5 -9 8 -20 8 -13
0 -20 -7 -20 -20z"/>
<path d="M7750 6390 c0 -13 18 -22 24 -11 3 5 -1 11 -9 15 -8 3 -15 1 -15 -4z"/>
<path d="M7640 6274 c0 -3 7 -12 15 -20 13 -13 15 -13 15 -1 0 8 -7 17 -15 21
-8 3 -15 3 -15 0z"/>
<path d="M7336 5575 c-3 -8 -1 -15 4 -15 6 0 10 7 10 15 0 8 -2 15 -4 15 -2 0
-6 -7 -10 -15z"/>
<path d="M7312 5350 c0 -14 2 -19 5 -12 2 6 2 18 0 25 -3 6 -5 1 -5 -13z"/>
<path d="M7322 5255 c0 -16 2 -22 5 -12 2 9 2 23 0 30 -3 6 -5 -1 -5 -18z"/>
<path d="M7391 4764 c0 -11 3 -14 6 -6 3 7 2 16 -1 19 -3 4 -6 -2 -5 -13z"/>
<path d="M7420 4626 c0 -9 5 -16 10 -16 6 0 10 4 10 9 0 6 -4 13 -10 16 -5 3
-10 -1 -10 -9z"/>
<path d="M7455 4610 c-3 -5 1 -10 10 -10 9 0 13 5 10 10 -3 6 -8 10 -10 10 -2
0 -7 -4 -10 -10z"/>
<path d="M7115 4118 c-6 -21 -15 -556 -16 -958 -1 -836 0 -857 17 -875 25 -25
65 -15 90 22 21 32 22 43 23 305 1 149 3 274 6 277 2 4 6 281 10 617 l7 611
-38 6 c-60 10 -94 8 -99 -5z"/>
<path d="M8760 3750 c0 -16 -4 -30 -10 -30 -5 0 -10 -13 -10 -30 0 -20 5 -30
15 -30 12 0 15 13 15 60 0 33 -2 60 -5 60 -3 0 -5 -13 -5 -30z"/>
<path d="M8620 3719 c0 -5 5 -7 10 -4 6 3 10 8 10 11 0 2 -4 4 -10 4 -5 0 -10
-5 -10 -11z"/>
<path d="M3438 2783 c7 -3 16 -2 19 1 4 3 -2 6 -13 5 -11 0 -14 -3 -6 -6z"/>
<path d="M13840 8100 c0 -5 5 -10 10 -10 6 0 10 5 10 10 0 6 -4 10 -10 10 -5
0 -10 -4 -10 -10z"/>
<path d="M11933 7983 c9 -2 23 -2 30 0 6 3 -1 5 -18 5 -16 0 -22 -2 -12 -5z"/>
<path d="M11798 7963 c23 -2 61 -2 85 0 23 2 4 4 -43 4 -47 0 -66 -2 -42 -4z"/>
<path d="M11453 7949 c14 -8 22 -8 30 0 8 8 3 11 -18 11 -26 -1 -28 -2 -12
-11z"/>
<path d="M10480 7749 c0 -5 5 -7 10 -4 6 3 10 8 10 11 0 2 -4 4 -10 4 -5 0
-10 -5 -10 -11z"/>
<path d="M9851 7484 c0 -11 3 -14 6 -6 3 7 2 16 -1 19 -3 4 -6 -2 -5 -13z"/>
<path d="M9448 7363 c7 -3 16 -2 19 1 4 3 -2 6 -13 5 -11 0 -14 -3 -6 -6z"/>
<path d="M11035 3320 c-25 -11 1 -11 35 0 20 6 21 8 5 8 -11 0 -29 -3 -40 -8z"/>
<path d="M10900 3285 c-33 -19 -21 -19 21 0 19 8 27 14 19 14 -8 0 -26 -6 -40
-14z"/>
<path d="M10300 3195 c0 -8 9 -15 20 -15 24 0 27 15 4 24 -22 9 -24 8 -24 -9z"/>
<path d="M12915 2760 c2 -14 5 -34 6 -45 0 -18 1 -18 12 3 7 16 7 26 0 30 -5
4 -13 14 -17 22 -3 8 -4 4 -1 -10z"/>
<path d="M15488 2483 c6 -2 18 -2 25 0 6 3 1 5 -13 5 -14 0 -19 -2 -12 -5z"/>
<path d="M15816 2438 c3 -4 47 -7 97 -7 106 1 98 6 -20 12 -45 2 -80 0 -77 -5z"/>
</g>
</svg>
