<?xml version="1.0" standalone="no"?>
<!DOCTYPE svg PUBLIC "-//W3C//DTD SVG 20010904//EN"
 "http://www.w3.org/TR/2001/REC-SVG-20010904/DTD/svg10.dtd">
<svg version="1.0" xmlns="http://www.w3.org/2000/svg"
 width="249.000000pt" height="202.000000pt" viewBox="0 0 249.000000 202.000000"
 preserveAspectRatio="xMidYMid meet">

<g transform="translate(0.000000,202.000000) scale(0.100000,-0.100000)"
fill="#000000" stroke="none">
<path d="M1770 1775 c0 -7 30 -17 73 -25 39 -7 79 -15 87 -18 13 -4 13 -3 0
11 -20 21 -160 49 -160 32z"/>
<path d="M1780 1678 c0 -24 7 -124 15 -223 22 -275 44 -640 56 -954 9 -234 8
-286 -3 -297 -11 -10 -36 -10 -143 3 -111 13 -145 22 -232 59 -57 24 -109 44
-117 44 -20 0 -47 -101 -32 -118 26 -27 498 -48 543 -23 12 6 25 20 28 31 4
13 15 20 30 20 21 0 24 5 29 53 3 28 8 145 11 260 3 114 12 339 21 500 9 160
17 353 18 427 1 121 -1 140 -22 183 -12 26 -25 47 -30 48 -4 0 -16 2 -27 4
-11 2 -38 6 -60 10 -22 3 -50 8 -62 12 -21 5 -23 2 -23 -39z"/>
<path d="M548 603 c7 -3 16 -2 19 1 4 3 -2 6 -13 5 -11 0 -14 -3 -6 -6z"/>
<path d="M938 603 c6 -2 18 -2 25 0 6 3 1 5 -13 5 -14 0 -19 -2 -12 -5z"/>
<path d="M631 506 c-1 -10 -14 -35 -30 -55 -38 -48 -64 -101 -90 -186 -12 -38
-26 -77 -31 -86 -5 -9 -6 -20 -3 -23 16 -15 32 -3 44 31 19 62 57 130 74 137
27 10 305 7 324 -4 18 -9 71 -126 71 -155 0 -8 8 -15 18 -15 24 0 34 10 23 24
-4 6 -19 43 -31 81 -29 89 -53 138 -98 197 -23 31 -39 44 -46 39 -11 -10 -64
-14 -154 -12 -45 1 -54 4 -62 24 -7 18 -9 19 -9 3z"/>
</g>
</svg>
