<?xml version="1.0" standalone="no"?>
<!DOCTYPE svg PUBLIC "-//W3C//DTD SVG 20010904//EN"
 "http://www.w3.org/TR/2001/REC-SVG-20010904/DTD/svg10.dtd">
<svg version="1.0" xmlns="http://www.w3.org/2000/svg"
 width="807.000000pt" height="635.000000pt" viewBox="0 0 807.000000 635.000000"
 preserveAspectRatio="xMidYMid meet">

<g transform="translate(0.000000,635.000000) scale(0.100000,-0.100000)"
fill="#000000" stroke="none">
<path d="M10 4245 l0 -2104 105 -3 c64 -2 104 -7 103 -13 -3 -12 -36 -12 -136
-2 l-72 8 0 -35 0 -36 100 0 c85 0 100 -2 100 -16 0 -14 -11 -15 -82 -9 -46 3
-91 9 -100 11 -15 5 -18 -1 -18 -35 l0 -41 96 0 c72 0 95 -3 91 -12 -2 -7 -8
-12 -13 -12 -5 1 -46 5 -91 9 l-83 7 0 -36 0 -36 85 0 c70 0 85 -3 85 -15 0
-16 -30 -15 -137 1 l-33 5 0 -941 0 -940 4030 0 4030 0 0 3175 0 3175 -4030 0
-4030 0 0 -2105z m5021 1075 l41 -21 -41 -21 c-24 -12 -52 -38 -70 -64 -26
-40 -30 -43 -36 -24 -10 32 -52 76 -85 90 -33 14 -40 30 -13 30 21 0 103 85
103 107 0 9 13 -4 29 -30 19 -29 46 -54 72 -67z m-710 -165 c19 -6 17 -9 -20
-42 -23 -19 -41 -41 -41 -48 0 -8 -21 7 -47 33 l-48 47 27 17 c15 9 35 29 44
43 l17 26 23 -35 c13 -19 33 -38 45 -41z m-1135 50 c148 -24 443 -116 509
-159 48 -31 39 -107 -16 -130 -29 -12 -40 -10 -128 21 -230 83 -395 123 -509
123 -171 0 -197 -53 -111 -220 102 -198 444 -542 831 -836 220 -167 447 -316
472 -311 11 3 69 13 128 22 58 10 111 21 118 25 8 5 4 15 -14 34 -50 55 -46
136 9 184 42 38 80 46 130 30 69 -23 108 -117 74 -180 -6 -11 -8 -22 -5 -25 3
-3 63 9 134 27 l130 32 6 38 c17 109 152 154 226 75 13 -14 30 -25 38 -25 28
0 112 35 112 46 0 23 -99 210 -161 304 -73 111 -221 263 -294 302 -116 62
-364 112 -644 129 -287 19 -638 -13 -858 -77 -104 -30 -118 -30 -148 1 -31 30
-33 77 -5 103 22 21 153 63 265 86 320 66 844 64 1160 -5 99 -21 232 -62 280
-86 63 -32 180 -130 247 -207 90 -104 174 -231 249 -378 33 -65 62 -118 65
-118 2 0 40 18 83 39 75 38 79 42 85 80 12 75 82 131 165 131 33 0 40 4 45 25
4 14 2 34 -4 45 -36 67 -206 136 -419 170 -85 14 -111 34 -111 85 0 45 29 75
74 75 39 0 199 -32 284 -56 102 -29 203 -84 257 -138 81 -81 95 -162 46 -262
-16 -32 -31 -81 -34 -108 -5 -54 -28 -90 -78 -124 -29 -21 -42 -23 -93 -19
-56 5 -66 2 -150 -40 -50 -25 -93 -47 -95 -49 -2 -2 56 -66 130 -141 210 -216
340 -404 379 -545 20 -75 9 -160 -26 -210 -110 -156 -408 -141 -883 44 -200
78 -582 269 -792 396 l-167 100 -173 -19 c-164 -19 -179 -23 -258 -61 -46 -23
-134 -77 -195 -121 -311 -224 -389 -272 -511 -313 -102 -34 -232 -39 -313 -11
-76 27 -151 99 -190 184 -33 72 -56 202 -50 282 l3 45 -95 28 c-128 38 -209
78 -266 130 -114 104 -113 231 3 366 39 45 47 63 50 99 4 69 44 130 106 159
64 29 104 30 167 3 l49 -21 123 50 c68 28 142 56 164 62 33 10 53 27 94 78 28
35 54 70 56 76 2 6 -14 36 -37 66 -100 133 -155 255 -165 365 -5 53 -3 67 23
115 61 116 198 153 429 115z m1713 -981 c93 -78 40 -234 -80 -234 -42 0 -98
34 -116 70 -30 59 -6 146 49 176 41 23 113 17 147 -12z m-927 -71 c22 -20 23
-46 2 -67 -12 -12 -36 -16 -99 -16 -79 0 -86 2 -101 25 -15 23 -15 27 0 50 15
23 22 25 98 25 62 0 86 -4 100 -17z m340 0 c22 -20 23 -46 2 -67 -12 -12 -36
-16 -99 -16 -79 0 -86 2 -101 25 -15 23 -15 27 0 50 15 23 22 25 98 25 62 0
86 -4 100 -17z m-210 -843 c9 -16 31 -38 47 -48 l31 -19 -24 -11 c-13 -6 -37
-26 -52 -46 l-28 -35 -18 30 c-10 17 -31 38 -47 47 l-29 16 29 18 c17 10 38
32 47 48 9 16 19 30 22 30 3 0 13 -14 22 -30z m-3832 -936 c0 -14 -10 -16 -82
-9 -149 12 -165 23 -35 24 102 1 117 -1 117 -15z m335 6 c24 -5 52 -22 73 -44
l33 -36 100 0 c66 0 99 -4 99 -11 0 -8 -30 -9 -105 -4 l-105 7 0 -36 0 -36 94
0 c52 0 97 -4 101 -9 10 -17 -10 -19 -99 -9 -48 5 -90 8 -92 5 -2 -2 -7 -18
-10 -35 l-6 -32 96 0 c82 0 96 -2 96 -16 0 -17 -16 -17 -156 2 -36 5 -41 3
-52 -21 -7 -14 -12 -30 -12 -35 0 -6 43 -10 99 -10 91 0 125 -9 107 -27 -3 -4
-54 -1 -113 5 -104 12 -108 11 -142 -11 -70 -44 -78 -47 -144 -40 -74 7 -79 2
-91 -79 l-7 -48 -80 0 -81 0 6 28 c3 15 24 130 46 256 22 126 43 233 46 237 7
12 248 11 299 -1z m1975 -6 c0 -14 -10 -16 -82 -9 -149 12 -165 23 -35 24 102
1 117 -1 117 -15z m332 10 c54 -9 78 -36 78 -89 0 -57 -11 -84 -49 -121 l-31
-31 21 -19 c12 -10 25 -29 30 -41 8 -21 16 -22 105 -25 70 -2 99 -7 102 -16 3
-11 -10 -12 -69 -6 -127 13 -123 14 -129 -31 -3 -23 -16 -58 -29 -78 -38 -63
-59 -68 -249 -65 l-168 3 47 260 c26 143 47 261 48 263 2 5 258 1 293 -4z
m1586 -13 c4 -11 -10 -12 -79 -6 -153 13 -174 23 -45 22 92 -2 120 -5 124 -16z
m352 6 c48 -17 65 -51 55 -112 -5 -40 -15 -57 -47 -88 l-39 -37 30 -26 c17
-14 31 -32 31 -40 0 -11 25 -14 130 -14 83 0 130 -4 130 -10 0 -20 -30 -22
-135 -10 -59 7 -109 9 -112 6 -3 -3 -7 -21 -8 -39 -3 -50 -42 -112 -81 -131
-28 -13 -68 -16 -199 -16 -91 0 -165 3 -165 8 0 21 89 502 95 511 9 15 270 13
315 -2z m-3101 -94 c-1 -78 2 -127 8 -137 4 -6 6 -27 4 -48 l-3 -38 121 0
c109 0 146 -8 127 -27 -3 -3 -55 0 -117 7 -67 7 -115 8 -120 3 -5 -5 -6 -39
-2 -79 l8 -69 113 -3 c94 -2 112 -5 112 -18 0 -13 -7 -15 -32 -11 -84 15 -186
19 -192 8 -4 -6 -37 -11 -76 -11 l-69 0 -3 33 c-3 31 -4 32 -56 35 -52 3 -53
3 -67 -32 l-15 -36 -71 0 c-53 0 -70 3 -66 13 3 6 44 104 91 216 47 113 86
206 86 207 0 5 73 11 147 12 l72 2 0 -27z m764 17 c43 0 57 -3 54 -12 -2 -7
-8 -12 -13 -11 -5 0 -50 4 -101 8 l-92 8 -18 -39 c-10 -22 -21 -41 -24 -44 -6
-5 -19 -29 -64 -116 -11 -21 -23 -41 -26 -44 -14 -12 -38 -68 -44 -105 -15
-92 -8 -85 -86 -85 -55 0 -70 3 -66 13 20 54 17 128 -12 265 -17 78 -31 147
-31 152 0 6 31 10 69 10 l69 0 7 -75 c4 -41 11 -75 16 -75 8 0 42 67 70 139
10 24 10 24 122 18 62 -4 138 -7 170 -7z m1045 -6 c53 -37 66 -128 36 -254
-32 -135 -97 -190 -229 -190 -77 0 -127 18 -151 54 -14 22 -16 43 -12 119 9
150 51 234 138 271 48 21 188 21 218 0z m869 6 c31 0 53 -4 53 -11 0 -7 -35
-9 -106 -7 l-106 3 -21 -36 c-12 -20 -41 -64 -64 -97 -24 -34 -43 -67 -43 -74
1 -7 14 -51 29 -98 l28 -85 106 -3 c89 -2 107 -5 107 -18 0 -12 -8 -15 -37
-10 -103 15 -161 17 -167 7 -4 -6 -40 -11 -86 -11 l-78 0 -12 50 c-7 28 -15
50 -19 50 -4 0 -20 -22 -36 -50 l-29 -50 -78 0 -79 0 35 54 c19 30 51 79 72
110 l37 56 -31 103 c-18 57 -32 106 -32 110 0 4 37 7 82 5 l82 -3 9 -42 c4
-24 12 -43 17 -43 4 0 23 23 40 51 l32 52 120 -7 c67 -3 145 -6 175 -6z m1067
-51 c3 -34 6 -88 6 -119 0 -31 3 -60 7 -63 3 -4 7 -26 7 -50 l1 -42 88 -3 c55
-2 87 -7 87 -14 0 -7 -26 -9 -84 -4 -46 4 -86 3 -89 -1 -3 -5 -3 -20 0 -36 5
-27 7 -27 79 -27 53 0 74 -4 74 -12 0 -10 -36 -14 -142 -15 -150 -3 -158 -1
-158 45 0 21 -4 23 -52 20 -49 -3 -54 -6 -68 -35 -15 -32 -16 -33 -82 -33 -38
0 -68 4 -68 8 0 4 40 102 88 217 l88 210 65 6 c35 3 82 6 105 7 l41 2 7 -61z
m645 16 c-3 -42 -10 -53 -106 -159 -57 -64 -103 -120 -103 -126 0 -6 31 -10
80 -10 l80 0 -6 -40 -7 -40 102 0 c86 0 101 -2 101 -16 0 -13 -7 -15 -32 -11
-86 15 -166 19 -172 8 -5 -7 -67 -11 -187 -11 l-179 0 0 24 c0 44 17 71 115
179 53 59 94 111 90 117 -3 5 -34 10 -67 10 l-61 0 7 38 c3 20 6 45 6 54 0 16
16 18 153 21 83 1 160 4 170 5 15 2 18 -5 16 -43z m1227 -42 c4 -49 7 -94 5
-102 -1 -7 0 -24 3 -37 6 -24 9 -24 126 -24 105 0 120 -2 120 -16 0 -15 -9
-16 -72 -10 -40 3 -95 9 -121 13 l-49 6 6 -64 c2 -35 5 -72 5 -81 1 -16 13
-18 101 -18 82 0 100 -3 100 -15 0 -18 5 -18 -99 -5 -59 8 -87 8 -95 0 -5 -5
-40 -10 -78 -10 l-67 0 -7 35 -6 36 -52 -3 c-47 -3 -52 -6 -65 -35 -14 -33
-15 -33 -83 -33 -37 0 -68 3 -68 8 0 4 40 102 88 217 l88 210 75 6 c41 3 88 6
106 7 l31 2 8 -87z m-7116 64 c0 -11 -14 -12 -67 -6 -126 15 -128 16 -30 18
74 1 97 -2 97 -12z m837 -9 c-15 -64 -50 -289 -46 -292 3 -3 75 -8 161 -12 96
-4 155 -11 151 -17 -3 -5 -42 -6 -98 -2 -91 7 -92 6 -98 -17 -13 -47 -11 -48
78 -48 47 0 85 -4 85 -9 0 -18 -16 -20 -90 -10 -48 6 -77 6 -84 -1 -10 -10
-276 -15 -276 -5 0 11 71 411 75 423 3 8 28 12 76 12 69 0 71 -1 66 -22z m403
12 c0 -12 -63 -12 -135 0 -45 7 -40 7 43 9 55 0 92 -3 92 -9z m465 0 c7 -12
-53 -12 -135 0 -52 7 -49 7 37 9 52 0 94 -3 98 -9z m1311 3 c-7 -7 -98 -5
-105 3 -2 2 22 4 54 4 32 0 55 -3 51 -7z m574 -3 c0 -11 -59 -12 -140 0 -50 7
-47 7 43 9 59 0 97 -3 97 -9z m1400 0 c0 -11 -59 -12 -140 0 -50 7 -47 7 43 9
59 0 97 -3 97 -9z m530 0 c0 -11 -69 -12 -150 0 -49 6 -44 7 48 9 62 0 102 -3
102 -9z m690 0 c0 -11 -59 -12 -140 0 -50 7 -47 7 43 9 59 0 97 -3 97 -9z
m260 -147 c7 -87 13 -169 12 -183 -4 -68 -1 -70 108 -70 89 0 118 -8 91 -24
-5 -3 -48 -1 -96 5 -65 8 -89 8 -95 -1 -4 -7 -32 -10 -76 -8 -68 3 -69 3 -74
33 -5 29 -7 30 -60 30 -53 0 -55 -1 -64 -32 l-9 -33 -72 0 -73 0 89 210 c48
116 91 215 94 220 3 6 52 10 109 10 l102 0 14 -157z m390 147 c0 -11 -59 -12
-140 0 -50 7 -47 7 43 9 59 0 97 -3 97 -9z m550 0 c0 -11 -69 -12 -150 0 -49
6 -44 7 48 9 62 0 102 -3 102 -9z m330 -5 c21 -11 32 -27 40 -55 15 -57 -10
-154 -51 -196 l-30 -31 17 -59 c9 -33 19 -65 22 -72 3 -10 -13 -12 -73 -10
l-78 3 -16 60 c-9 33 -20 60 -25 60 -10 0 -21 -31 -31 -87 l-6 -38 -70 0 -71
0 6 28 c3 15 20 108 36 207 17 99 33 186 35 193 7 19 257 17 295 -3z m-7750
-80 c0 -13 -10 -14 -57 -9 -141 16 -152 22 -45 23 85 1 102 -2 102 -14z m1217
3 c-4 -14 -70 -13 -156 2 -38 6 -27 8 57 9 79 1 103 -2 99 -11z m513 -3 c0
-15 -19 -15 -145 5 -44 7 -37 8 48 9 79 1 97 -2 97 -14z m580 0 c0 -13 -10
-14 -57 -9 -141 16 -152 22 -45 23 85 1 102 -2 102 -14z m660 5 c0 -12 -66
-12 -130 -1 -39 8 -34 9 43 10 52 0 87 -3 87 -9z m653 -4 c6 -16 -28 -15 -148
4 -44 7 -38 8 46 9 76 1 98 -2 102 -13z m607 5 c0 -18 -15 -19 -115 -6 l-100
12 108 2 c61 0 107 -3 107 -8z m730 -6 c0 -15 -19 -15 -145 5 -44 7 -37 8 48
9 79 1 97 -2 97 -14z m560 0 c0 -15 -35 -14 -155 5 -43 7 -35 8 53 9 83 1 102
-2 102 -14z m660 0 c0 -15 -2 -15 -145 4 -57 8 -56 9 43 10 84 1 102 -2 102
-14z m654 0 c-6 -15 -26 -14 -149 5 -43 7 -35 8 52 9 86 1 101 -1 97 -14z
m573 3 c-4 -14 -81 -13 -167 2 -36 6 -22 8 63 9 83 1 108 -2 104 -11z m-6227
-83 c0 -13 -11 -15 -67 -9 -140 14 -154 22 -40 23 90 1 107 -1 107 -14z m570
0 c0 -13 -11 -15 -67 -9 -140 14 -154 22 -40 23 90 1 107 -1 107 -14z m550 -1
c0 -13 -10 -14 -72 -8 -155 15 -169 22 -45 23 100 1 117 -1 117 -15z m640 1
c0 -15 -35 -14 -155 5 -43 7 -35 8 53 9 83 1 102 -2 102 -14z m708 -3 c3 -10
-11 -11 -65 -6 -134 13 -154 22 -44 21 75 -2 106 -6 109 -15z m562 2 c0 -13
-10 -15 -67 -8 -151 15 -163 22 -45 23 96 1 112 -1 112 -15z m720 0 c0 -13
-10 -15 -67 -8 -151 15 -163 22 -45 23 96 1 112 -1 112 -15z m667 4 c-4 -14
-98 -13 -172 2 -30 6 -14 8 68 9 83 1 108 -2 104 -11z m550 0 c-4 -14 -86 -13
-173 1 -41 7 -30 9 64 10 87 1 113 -2 109 -11z m653 -4 c0 -13 -10 -15 -67 -8
-151 15 -163 22 -45 23 96 1 112 -1 112 -15z m590 0 c0 -13 -10 -15 -67 -8
-151 15 -163 22 -45 23 96 1 112 -1 112 -15z m-6240 -80 c0 -14 -10 -15 -75
-9 -162 15 -177 23 -47 24 106 1 122 -1 122 -15z m1130 0 c0 -14 -10 -15 -75
-9 -162 15 -177 23 -47 24 106 1 122 -1 122 -15z m1353 0 c-5 -13 -17 -15 -82
-9 -151 14 -164 23 -34 24 108 1 122 -1 116 -15z m567 0 c0 -14 -10 -15 -82
-9 -157 13 -173 23 -40 24 106 1 122 -1 122 -15z m1323 0 c-5 -13 -17 -15 -77
-9 -145 15 -157 23 -34 24 103 1 117 -1 111 -15z m587 0 c0 -14 -10 -15 -77
-9 -152 14 -167 23 -40 24 101 1 117 -1 117 -15z m657 4 c-5 -15 -122 -14
-197 1 -36 7 -21 9 78 10 95 1 123 -2 119 -11z m-6157 -88 c0 -12 -72 -12
-145 0 -44 6 -38 7 48 9 59 0 97 -3 97 -9z m1170 0 c0 -12 -72 -12 -145 0 -44
6 -38 7 48 9 59 0 97 -3 97 -9z m488 -2 c-5 -13 -41 -13 -138 1 -51 8 -48 9
43 10 74 1 98 -2 95 -11z m657 2 c7 -12 -37 -12 -110 0 -49 7 -48 7 27 9 42 0
80 -3 83 -9z m648 -1 c-8 -8 -36 -9 -100 -2 l-88 10 100 2 c73 1 96 -2 88 -10z
m607 -2 c0 -11 -14 -12 -67 -6 -126 15 -128 16 -30 18 74 1 97 -2 97 -12z
m680 3 c0 -11 -59 -12 -140 0 -50 7 -47 7 43 9 59 0 97 -3 97 -9z m1220 0 c0
-12 -72 -12 -145 0 -44 6 -38 7 48 9 59 0 97 -3 97 -9z m650 0 c0 -11 -59 -12
-140 0 -50 7 -47 7 43 9 59 0 97 -3 97 -9z m630 -3 c0 -11 -14 -12 -67 -6
-126 15 -128 16 -30 18 74 1 97 -2 97 -12z m-6760 -77 c0 -18 -23 -19 -125 -6
l-100 13 113 2 c71 1 112 -3 112 -9z m1650 -5 c0 -12 -11 -14 -62 -8 -144 14
-157 21 -45 22 88 1 107 -2 107 -14z m700 5 c0 -12 -27 -12 -90 -1 -44 8 -44
9 23 10 39 0 67 -3 67 -9z m571 -4 c-12 -14 -48 -13 -156 4 -42 6 -32 8 59 9
91 1 107 -1 97 -13z m1306 2 c-4 -14 -78 -13 -165 2 -38 6 -27 8 61 9 83 1
108 -2 104 -11z m-3751 -265 c-4 -21 -9 -59 -13 -85 l-6 -48 41 0 c44 0 56 -9
46 -34 -9 -24 -142 -23 -151 2 -4 9 -11 20 -17 24 -7 5 -5 8 5 8 20 0 33 51
16 62 -8 5 -6 8 6 8 10 0 17 6 15 13 -1 6 1 29 5 50 7 31 12 37 34 37 24 0 25
-2 19 -37z m274 18 c0 -17 -8 -20 -47 -23 -40 -3 -48 -6 -48 -23 0 -15 8 -21
33 -23 24 -2 32 -8 32 -23 0 -15 -7 -19 -39 -19 -30 0 -40 -4 -44 -19 -7 -27
0 -31 45 -31 41 0 41 0 32 -24 -5 -13 -22 -16 -76 -16 -52 0 -69 3 -65 13 2 6
12 56 22 110 l19 97 68 0 c61 0 68 -2 68 -19z m90 -43 c3 -31 8 -60 12 -63 4
-4 21 20 37 54 26 50 36 61 56 61 25 0 25 -1 -27 -105 -47 -94 -55 -105 -79
-105 -31 0 -35 12 -45 141 l-7 81 24 -4 c21 -3 25 -9 29 -60z m298 35 c-2 -14
-15 -19 -51 -21 -38 -3 -47 -7 -47 -22 0 -14 8 -20 33 -22 24 -2 32 -8 32 -23
0 -16 -8 -21 -40 -25 -27 -3 -41 -10 -43 -22 -3 -15 4 -18 36 -18 45 0 52 -4
45 -31 -5 -16 -14 -19 -69 -19 -34 0 -65 4 -68 8 -2 4 -1 28 4 52 5 25 14 71
20 103 l11 57 70 0 c62 0 70 -2 67 -17z m78 0 c-14 -51 -27 -136 -22 -149 3
-9 20 -14 46 -14 33 0 40 -3 40 -20 0 -18 -7 -20 -75 -20 -86 0 -82 -6 -60
102 25 123 23 118 51 118 19 0 24 -4 20 -17z m331 -6 c-12 -32 -28 -130 -23
-143 6 -16 52 -19 61 -5 3 6 10 36 16 68 16 88 18 93 46 93 21 0 24 -4 20 -22
-3 -13 -11 -50 -17 -82 -17 -83 -54 -121 -112 -113 -22 3 -47 12 -54 19 -16
16 -26 98 -13 98 14 0 10 58 -3 63 -8 3 -6 6 5 6 9 1 17 8 17 16 0 10 10 15
31 15 21 0 30 -4 26 -13z m285 -4 c22 -20 23 -45 3 -83 -15 -28 -30 -36 -85
-42 -20 -2 -27 -11 -34 -40 -8 -30 -14 -38 -33 -38 -27 0 -27 -5 -8 95 25 137
18 125 82 125 38 0 62 -5 75 -17z m566 -20 c29 -40 5 -133 -43 -171 -32 -26
-91 -29 -122 -7 -60 42 -19 182 60 203 38 10 87 -1 105 -25z m-292 -8 c3 -19
10 -35 14 -35 5 0 18 16 30 35 15 24 29 35 46 35 13 0 24 -3 24 -6 0 -4 -20
-34 -44 -68 -23 -33 -46 -78 -50 -98 -6 -34 -10 -38 -37 -38 -20 0 -28 4 -23
11 3 6 0 15 -7 20 -11 7 -11 9 3 9 24 0 17 51 -8 61 -17 7 -17 8 -1 8 19 1 23
16 7 26 -6 4 -8 11 -5 16 4 5 -4 13 -17 18 -19 8 -20 10 -4 10 12 1 16 6 12
16 -4 11 2 15 24 15 25 0 30 -4 36 -35z m391 -2 c-3 -21 -9 -59 -13 -85 -6
-40 -4 -49 11 -54 33 -13 49 10 65 92 12 61 20 80 34 82 31 6 35 -11 20 -78
-19 -86 -33 -119 -55 -130 -25 -14 -103 -12 -117 2 -14 14 -15 77 -1 138 14
66 16 70 40 70 19 0 21 -4 16 -37z m291 15 c19 -19 14 -73 -8 -101 -16 -21
-19 -34 -14 -67 6 -39 5 -42 -16 -38 -16 2 -26 14 -34 38 -14 43 -39 46 -46 5
-4 -24 -11 -31 -33 -33 -24 -3 -28 0 -23 15 2 10 12 57 22 106 l17 87 61 0
c35 0 67 -5 74 -12z m235 5 c-7 -2 -19 -2 -25 0 -7 3 -2 5 12 5 14 0 19 -2 13
-5z m132 -2 c7 -13 -24 -43 -36 -35 -20 12 -59 -7 -74 -36 -29 -56 -15 -100
32 -100 27 0 43 28 23 40 -25 15 -2 40 36 40 l37 0 -6 -42 c-9 -66 -31 -78
-135 -76 -48 1 -75 4 -61 6 25 3 26 5 16 33 -10 24 -17 29 -47 30 l-35 2 34 6
c28 5 35 11 38 33 3 22 -1 27 -22 31 -24 4 -23 4 2 3 19 -1 36 8 52 27 13 16
34 33 45 37 29 12 94 12 101 1z m185 -8 c0 -12 19 -143 25 -180 5 -30 4 -33
-19 -33 -16 0 -27 7 -31 20 -8 25 -72 28 -89 4 -7 -9 -22 -14 -34 -12 -20 3
-18 9 34 106 51 94 58 102 85 102 16 0 29 -3 29 -7z m170 -50 c20 -105 21
-105 71 -22 36 60 49 75 72 77 33 4 34 -6 9 -128 -17 -79 -19 -85 -44 -88 -26
-3 -27 -2 -21 34 7 43 -8 40 -32 -7 -12 -22 -23 -29 -44 -29 -25 0 -30 5 -35
35 -4 19 -11 35 -15 35 -5 0 -12 -16 -15 -35 -6 -29 -11 -35 -31 -35 -29 0
-29 -6 -10 95 24 130 22 125 54 125 28 0 30 -3 41 -57z m244 48 c3 -4 -1 -44
-9 -87 -24 -126 -23 -124 -50 -124 -14 0 -25 1 -25 3 0 16 39 198 44 206 8 13
33 15 40 2z m111 -51 c9 -27 21 -50 25 -50 5 0 12 17 15 38 10 58 13 62 40 62
20 0 25 -4 21 -17 -3 -10 -12 -56 -21 -103 -8 -46 -19 -88 -24 -93 -5 -5 -19
-7 -32 -5 -18 2 -26 14 -38 53 -8 28 -16 52 -18 55 -7 9 -21 -23 -27 -61 -5
-33 -10 -39 -31 -39 -29 0 -29 -2 -10 92 25 124 23 118 54 118 26 0 31 -5 46
-50z m283 33 c-2 -11 -14 -19 -28 -21 -60 -6 -72 -13 -86 -49 -9 -20 -13 -46
-10 -59 8 -29 49 -42 72 -23 14 12 14 14 0 25 -26 18 -9 44 28 44 18 0 35 -2
38 -6 11 -11 -12 -80 -33 -96 -33 -28 -104 -24 -134 7 -27 26 -30 50 -15 107
16 56 60 88 122 88 42 0 49 -3 46 -17z m352 -12 c0 -17 -8 -20 -47 -23 -36 -2
-49 -7 -51 -20 -3 -15 4 -18 33 -18 32 0 36 -3 33 -22 -2 -19 -10 -24 -40 -26
-21 -2 -38 -7 -38 -13 0 -5 0 -12 0 -16 -1 -5 16 -10 36 -13 39 -5 49 -16 36
-37 -6 -10 -29 -11 -98 -4 -49 4 -79 9 -66 10 24 1 30 16 10 24 -8 4 -7 6 3 6
19 1 33 54 17 60 -6 2 -5 7 3 11 16 11 20 53 5 62 -7 5 -4 8 7 8 9 0 17 7 17
15 0 12 14 15 70 15 63 0 70 -2 70 -19z m104 -6 c4 -14 13 -25 20 -25 8 0 21
11 30 25 10 16 26 25 41 25 14 0 25 -3 25 -6 0 -3 -16 -24 -35 -47 -39 -45
-42 -59 -20 -110 20 -49 19 -57 -9 -57 -18 0 -27 8 -35 30 -13 38 -20 38 -52
-1 -17 -22 -32 -30 -48 -27 -22 3 -22 5 18 54 23 29 41 56 41 62 0 6 -9 31
-20 56 l-19 46 28 0 c22 0 30 -6 35 -25z m266 15 c52 -28 42 -102 -16 -126
-18 -8 -42 -14 -53 -14 -20 0 -31 -18 -31 -51 0 -14 -7 -19 -25 -19 -14 0 -25
5 -25 12 0 14 30 178 35 196 5 15 88 16 115 2z m208 -17 c-2 -13 -16 -19 -48
-23 -31 -4 -46 -10 -48 -22 -2 -12 5 -17 30 -20 25 -2 33 -8 33 -23 0 -16 -8
-21 -40 -25 -27 -3 -41 -10 -43 -22 -3 -15 4 -18 36 -18 46 0 52 -4 44 -32 -4
-19 -10 -20 -71 -13 -36 4 -67 8 -68 8 0 1 8 48 19 105 l21 102 69 0 c61 0 69
-2 66 -17z m164 0 c24 -22 23 -53 -5 -94 -16 -24 -21 -41 -16 -59 12 -43 10
-50 -15 -50 -20 0 -26 7 -33 38 -5 21 -15 37 -23 37 -8 0 -18 -16 -23 -37 -7
-31 -13 -38 -33 -38 -29 0 -29 -5 -4 115 11 53 20 99 20 101 0 2 26 4 57 4 38
0 62 -5 75 -17z m108 8 c0 -5 -9 -53 -20 -106 -11 -53 -20 -99 -20 -101 0 -2
-12 -4 -26 -4 -22 0 -25 4 -21 23 3 12 13 61 23 110 15 80 19 87 40 87 13 0
24 -4 24 -9z m166 -4 c14 -14 -15 -31 -53 -31 -31 -1 -39 -5 -41 -23 -3 -18 2
-22 30 -25 37 -3 47 -31 13 -36 -55 -8 -65 -13 -65 -32 0 -17 7 -20 40 -20 33
0 40 -3 40 -20 0 -18 -7 -20 -70 -20 -38 0 -70 4 -70 9 0 5 9 53 20 106 11 53
20 99 20 102 0 8 128 -2 136 -10z m105 -44 c20 -64 35 -65 44 -3 6 44 10 50
31 50 29 0 30 -12 6 -130 -18 -84 -18 -85 -47 -85 -27 0 -32 5 -45 47 -8 26
-19 48 -25 48 -5 1 -14 -19 -19 -44 -8 -39 -13 -46 -33 -46 -27 0 -28 4 -7
106 21 106 20 104 52 104 25 0 30 -5 43 -47z m282 41 c13 -13 -7 -34 -33 -34
-16 0 -36 -3 -45 -6 -19 -8 -45 -55 -45 -83 0 -29 29 -54 57 -48 25 5 49 -16
38 -33 -3 -5 -28 -10 -55 -10 -41 0 -52 4 -70 28 -40 49 -12 147 51 179 25 13
91 18 102 7z m175 -16 c3 -15 -4 -18 -35 -18 -40 0 -63 -14 -63 -37 0 -8 13
-13 35 -13 28 0 35 -4 35 -20 0 -16 -7 -20 -34 -20 -35 0 -63 -21 -51 -40 3
-5 21 -10 39 -10 38 0 47 -6 39 -26 -4 -10 -24 -14 -75 -14 -61 0 -69 2 -64
18 2 9 12 55 21 102 10 47 19 89 22 93 3 4 32 7 66 5 50 -2 62 -6 65 -20z
m-4462 -342 c27 -20 5 -41 -40 -38 -51 4 -52 -13 -1 -48 53 -36 58 -64 19
-101 -34 -32 -111 -32 -143 0 l-21 21 23 2 c12 1 41 0 63 -1 52 -3 63 12 28
36 -80 55 -88 89 -30 124 37 23 75 24 102 5z m109 -35 c-6 -37 -5 -39 24 -43
40 -6 47 0 55 45 6 31 11 37 31 37 30 0 30 5 5 -115 -11 -53 -20 -99 -20 -101
0 -2 -11 -4 -25 -4 -23 0 -24 2 -18 45 l6 45 -36 0 c-35 0 -37 -2 -48 -45 -10
-38 -15 -45 -35 -45 -13 0 -24 1 -24 3 0 1 9 49 20 107 11 58 20 106 20 107 0
2 12 3 26 3 24 0 25 -2 19 -39z m320 14 c42 -41 26 -129 -30 -173 -41 -33
-107 -30 -134 4 -25 32 -26 60 -4 115 30 75 119 104 168 54z m203 3 c18 -18
14 -73 -6 -99 -12 -14 -34 -24 -63 -28 -39 -5 -44 -9 -49 -36 -4 -24 -11 -31
-33 -33 -24 -3 -28 0 -24 15 3 10 8 32 11 48 3 17 10 56 16 88 l11 57 63 0
c35 0 67 -5 74 -12z m225 5 c-7 -2 -19 -2 -25 0 -7 3 -2 5 12 5 14 0 19 -2 13
-5z m132 -3 c10 -17 -16 -41 -36 -35 -30 10 -58 -4 -74 -35 -31 -60 -14 -100
41 -100 30 0 54 -23 35 -34 -5 -3 -46 -5 -92 -4 -46 1 -72 4 -58 6 25 3 26 5
16 33 -10 24 -17 29 -47 30 l-35 2 34 6 c28 5 35 11 38 33 3 23 -1 27 -24 31
-27 4 -27 4 2 3 21 -1 37 7 54 27 13 16 34 33 45 37 30 12 94 12 101 0z m169
-11 c20 -16 26 -29 26 -60 0 -88 -60 -155 -128 -145 -64 10 -89 52 -71 119 24
92 111 135 173 86z m150 -46 c20 -62 29 -59 41 15 6 36 10 42 31 42 21 0 24
-5 23 -32 0 -18 -8 -67 -17 -108 -16 -72 -18 -75 -48 -78 -29 -3 -31 0 -48 53
-10 31 -21 54 -24 50 -4 -4 -12 -28 -17 -53 -9 -41 -13 -47 -35 -47 -14 0 -24
5 -24 10 1 6 10 54 19 108 l17 97 32 0 c30 0 33 -3 50 -57z m262 47 c37 -14
17 -35 -34 -35 -49 0 -50 -25 -2 -57 46 -31 51 -68 14 -97 -29 -23 -92 -28
-125 -10 -19 10 -20 12 -4 29 13 15 21 16 44 7 32 -12 65 -3 59 16 -3 6 -23
22 -46 35 -34 19 -42 29 -42 51 0 55 69 86 136 61z m227 -21 c32 -39 15 -131
-31 -173 -32 -28 -102 -33 -132 -8 -51 41 -23 163 44 197 40 20 95 12 119 -16z
m107 -1 c-1 -13 -7 -51 -14 -85 -15 -70 -13 -73 51 -73 27 0 34 -4 31 -17 -3
-15 -16 -18 -81 -21 -72 -3 -78 -1 -73 15 3 10 12 60 21 111 16 86 19 92 41
92 18 0 24 -5 24 -22z m270 2 c0 -17 -7 -20 -44 -20 -31 0 -46 -5 -50 -16 -11
-29 -6 -34 29 -34 28 0 35 -4 35 -20 0 -17 -7 -20 -39 -20 -26 0 -41 -5 -45
-16 -10 -25 2 -34 45 -34 42 0 42 0 33 -24 -5 -12 -21 -16 -75 -16 -38 0 -69
1 -69 3 0 1 9 49 20 107 11 58 20 106 20 107 0 2 32 3 70 3 63 0 70 -2 70 -20z
m174 0 c16 -16 -21 -35 -61 -31 -47 4 -43 -22 7 -50 47 -27 57 -51 35 -85 -22
-33 -56 -48 -97 -40 -50 10 -65 21 -49 40 10 11 24 14 57 9 58 -8 60 17 4 48
-22 12 -42 31 -46 41 -7 23 20 66 49 78 26 11 86 5 101 -10z m249 -5 c-10 -68
-10 -70 28 -73 35 -3 36 -2 45 40 7 34 14 44 32 46 27 4 28 -10 4 -128 -17
-79 -20 -85 -44 -88 -25 -3 -26 -2 -18 35 11 45 3 56 -36 51 -25 -3 -30 -9
-38 -45 l-10 -43 -60 1 c-47 1 -54 3 -28 8 44 8 41 25 -5 32 l-38 6 43 2 c47
1 57 17 15 24 -25 4 -25 4 6 6 25 1 32 5 28 16 -4 8 -2 17 3 20 20 12 9 25
-22 27 l-33 1 33 4 c32 4 42 17 20 26 -8 3 -6 6 5 6 31 2 19 30 -15 34 -18 2
-6 4 27 3 34 0 59 -5 58 -11z m248 5 c42 0 49 -3 49 -20 0 -17 -7 -20 -45 -20
-25 0 -45 -2 -45 -4 0 -2 -3 -11 -6 -20 -5 -13 1 -16 31 -16 32 0 36 -3 33
-22 -2 -19 -10 -24 -40 -26 -30 -3 -38 -7 -38 -23 0 -16 7 -19 40 -19 33 0 40
-3 40 -19 0 -29 -12 -32 -83 -25 l-63 6 18 97 c23 120 25 124 44 117 9 -3 38
-6 65 -6z m213 -16 c22 -22 20 -66 -5 -98 -17 -21 -19 -34 -14 -66 6 -37 5
-40 -17 -40 -20 0 -26 7 -34 38 -5 22 -15 37 -24 37 -8 0 -18 -15 -23 -37 -7
-31 -13 -38 -33 -38 -28 0 -28 -4 2 143 8 38 14 70 14 73 0 2 27 4 59 4 41 0
65 -5 75 -16z m199 10 c16 -17 -8 -34 -48 -34 -30 0 -45 -5 -49 -16 -9 -23 2
-34 34 -34 55 0 46 -36 -10 -42 -27 -2 -36 -8 -38 -25 -3 -21 1 -23 37 -23 34
0 41 -3 41 -20 0 -18 -7 -20 -74 -20 l-73 0 19 98 c10 53 21 103 23 110 4 12
126 18 138 6z m147 -21 c0 -9 -7 -43 -16 -75 -17 -60 -26 -66 -69 -48 -17 7
-17 9 -2 9 9 1 17 6 17 11 0 6 -8 10 -17 11 -16 0 -16 1 1 8 25 10 31 58 8 64
-11 3 -9 5 7 6 16 1 21 5 17 16 -4 11 2 15 24 15 21 0 30 -5 30 -17z m-3543
-29 c-3 -3 -12 -4 -19 -1 -8 3 -5 6 6 6 11 1 17 -2 13 -5z m926 -81 c-7 -2
-19 -2 -25 0 -7 3 -2 5 12 5 14 0 19 -2 13 -5z m-956 -19 c-3 -3 -12 -4 -19
-1 -8 3 -5 6 6 6 11 1 17 -2 13 -5z m3530 -40 c7 -18 -14 -35 -33 -27 -10 4
-11 10 -3 24 12 23 28 24 36 3z m-60 -20 c-3 -3 -12 -4 -19 -1 -8 3 -5 6 6 6
11 1 17 -2 13 -5z"/>
<path d="M3009 4383 c-39 -45 -124 -174 -172 -263 -78 -142 -190 -461 -167
-475 16 -10 163 -24 285 -27 l120 -3 3 34 c4 44 -7 51 -95 51 -91 0 -103 13
-103 111 0 96 13 108 115 111 l80 3 3 80 c3 101 16 115 106 115 33 0 72 -6 86
-13 23 -11 25 -19 30 -97 l5 -85 82 -3 c60 -2 85 -7 95 -19 18 -22 18 -167 0
-185 -8 -8 -47 -15 -95 -18 l-82 -5 0 -40 0 -40 130 2 c147 3 493 31 514 43 9
5 -30 38 -125 106 -254 181 -573 450 -733 618 -19 20 -38 36 -42 36 -4 0 -22
-17 -40 -37z"/>
<path d="M2625 4162 c-59 -25 -62 -28 -68 -72 -16 -118 -135 -185 -260 -148
-39 12 -41 11 -69 -22 -16 -19 -31 -45 -34 -56 -9 -34 21 -79 70 -108 40 -23
210 -86 234 -86 5 0 18 33 27 73 23 95 75 237 125 344 22 47 40 87 40 89 0 8
-27 2 -65 -14z"/>
<path d="M5280 3789 c-47 -17 -143 -47 -215 -69 -91 -27 -129 -42 -127 -52 20
-76 2 -136 -50 -168 -79 -48 -198 5 -198 88 0 12 -4 23 -8 26 -9 6 -240 -39
-249 -48 -9 -8 -16 -3 157 -102 169 -96 473 -242 614 -295 l89 -33 46 25 c36
20 52 37 76 85 27 54 30 70 33 174 3 87 -2 140 -17 215 -23 114 -43 178 -57
181 -5 1 -47 -11 -94 -27z"/>
<path d="M5604 3443 c0 -147 -22 -239 -74 -311 -35 -48 -37 -59 -12 -66 64
-18 150 -29 229 -30 79 -1 95 2 120 20 72 55 7 209 -185 437 -36 42 -68 77
-71 77 -4 0 -7 -57 -7 -127z"/>
<path d="M2642 3397 c9 -173 68 -248 199 -255 127 -8 233 40 482 217 65 45
117 86 117 89 0 4 -118 8 -263 8 -231 2 -396 11 -506 31 l-34 6 5 -96z"/>
<path d="M436 2244 c-3 -9 -9 -40 -12 -70 l-7 -54 40 0 c49 0 59 11 68 72 6
40 4 48 -13 57 -30 16 -69 13 -76 -5z"/>
<path d="M2757 2273 c-3 -4 -8 -25 -12 -46 -7 -37 -7 -37 28 -37 41 0 60 19
55 57 -2 23 -8 29 -35 31 -17 2 -33 -1 -36 -5z"/>
<path d="M2717 2063 c-2 -4 -7 -25 -11 -45 l-7 -38 44 0 c51 0 70 16 65 57 -3
25 -7 28 -45 31 -22 2 -43 -1 -46 -5z"/>
<path d="M4671 2261 c-6 -11 -11 -31 -11 -45 0 -23 4 -26 35 -26 28 0 38 5 47
26 15 33 1 58 -35 62 -18 2 -29 -3 -36 -17z"/>
<path d="M4626 2039 c-11 -56 -9 -59 39 -59 50 0 71 23 61 66 -6 21 -12 24
-50 24 -41 0 -44 -2 -50 -31z"/>
<path d="M1590 2125 c-30 -70 -30 -80 5 -80 30 0 30 0 33 63 4 75 -10 81 -38
17z"/>
<path d="M3381 2181 c-13 -9 -53 -196 -43 -206 11 -11 80 -4 91 8 10 13 41
154 41 190 0 13 -8 17 -37 17 -21 0 -44 -4 -52 -9z"/>
<path d="M5340 2134 c-11 -25 -23 -57 -26 -70 -6 -21 -3 -24 25 -24 l31 0 0
70 c0 39 -2 70 -5 70 -3 0 -15 -21 -25 -46z"/>
<path d="M7201 2114 c-27 -72 -27 -74 9 -74 l30 0 0 65 c0 36 -4 65 -9 65 -4
0 -18 -25 -30 -56z"/>
<path d="M6551 2119 c-28 -69 -27 -79 9 -79 l30 0 0 65 c0 36 -4 65 -9 65 -4
0 -18 -23 -30 -51z"/>
<path d="M7817 2183 c-3 -5 -7 -24 -9 -43 -3 -30 0 -35 20 -38 13 -2 30 2 38
8 19 17 18 66 -2 74 -21 8 -42 8 -47 -1z"/>
<path d="M2578 1565 c-6 -28 -1 -35 23 -35 24 0 42 33 27 48 -20 20 -45 14
-50 -13z"/>
<path d="M3120 1558 c-24 -26 -27 -90 -5 -108 25 -21 62 2 76 48 21 70 -25
109 -71 60z"/>
<path d="M3537 1563 c-4 -3 -7 -17 -7 -30 0 -16 6 -23 19 -23 24 0 45 25 37
45 -5 15 -37 21 -49 8z"/>
<path d="M4120 1501 c-13 -26 -13 -31 5 -31 9 0 15 9 15 25 0 30 -6 32 -20 6z"/>
<path d="M5638 1514 c-14 -31 4 -49 34 -33 22 12 24 45 2 53 -23 9 -23 8 -36
-20z"/>
<path d="M5991 1508 c-11 -28 -6 -38 18 -38 28 0 46 26 31 45 -18 22 -39 18
-49 -7z"/>
<path d="M2783 1138 c-42 -47 -35 -118 11 -118 45 0 78 76 51 117 -19 29 -36
29 -62 1z"/>
<path d="M2997 1144 c-13 -13 -7 -54 7 -54 19 0 48 29 43 44 -4 13 -40 20 -50
10z"/>
<path d="M3505 1109 c-23 -44 -16 -93 13 -97 31 -5 60 23 68 64 12 66 -51 91
-81 33z"/>
<path d="M4140 1115 c-7 -8 -15 -35 -17 -59 -5 -37 -2 -46 15 -55 43 -23 98
61 72 110 -13 23 -53 25 -70 4z"/>
<path d="M5427 1103 c-4 -3 -7 -17 -7 -30 0 -27 30 -32 50 -8 20 24 -21 61
-43 38z"/>
</g>
</svg>
